<?xml version="1.0" standalone="no"?><!DOCTYPE svg PUBLIC "-//W3C//DTD SVG 1.1//EN" "http://www.w3.org/Graphics/SVG/1.1/DTD/svg11.dtd"><svg class="icon" width="200px" height="200.00px" viewBox="0 0 1024 1024" version="1.1" xmlns="http://www.w3.org/2000/svg"><path d="M765.952 498.688c-4.608-5.632-11.264-8.704-17.92-8.704-12.288 0-22.528 10.752-25.088 25.088-17.92 113.664-106.496 196.096-210.432 196.096S320 628.736 302.08 515.072c-2.048-14.336-12.8-25.088-25.088-25.088-6.656 0-12.8 3.072-17.92 8.704-6.144 7.168-8.704 17.408-7.168 27.136 22.528 139.264 132.096 240.64 260.096 240.64s237.568-101.376 260.096-240.64c2.56-9.728 0-19.968-6.144-27.136z" fill="#FFBB12" /><path d="M825.856 199.168c-82.944-82.944-195.584-130.048-312.832-129.536-117.248 0-229.888 46.592-312.832 129.536A440.9344 440.9344 0 0 0 70.144 512c0 117.248 46.592 229.888 129.536 312.832 82.944 82.944 195.584 130.048 312.832 129.536 117.248 0 229.888-46.592 312.832-129.536 82.944-82.944 130.048-195.584 129.536-312.832 1.024-117.248-45.568-229.888-129.024-312.832z m-38.912 586.752c-73.216 73.216-170.496 113.664-273.92 113.664-102.912 0.512-201.216-40.448-273.92-113.664-73.216-73.216-113.664-170.496-113.664-273.92-0.512-102.912 40.448-201.216 113.664-273.92C312.32 164.864 409.6 124.416 513.024 124.416c102.912-0.512 201.216 40.448 273.92 113.664 73.216 73.216 113.664 170.496 113.664 273.92 0 102.912-40.96 201.728-113.664 273.92z" fill="#2E77ED" /></svg>