<?xml version="1.0" standalone="no"?><!DOCTYPE svg PUBLIC "-//W3C//DTD SVG 1.1//EN" "http://www.w3.org/Graphics/SVG/1.1/DTD/svg11.dtd"><svg class="icon" width="200px" height="200.00px" viewBox="0 0 1024 1024" version="1.1" xmlns="http://www.w3.org/2000/svg"><path fill="#B1B8C8" d="M829.895111 575.203556h-29.525333c-12.629333 16.725333-21.105778 33.507556-33.735111 50.232888h42.211555v4.209778l118.158222 209.408H568.32c-12.629333 16.725333-25.315556 25.144889-29.525333 29.297778-4.209778 4.209778-8.419556 8.362667-12.629334 8.362667-4.209778 0-8.419556-4.209778-12.629333-8.362667l-29.525333-29.297778H116.963556l4.209777-8.362666 97.052445-205.198223h42.211555l-37.944889-50.232889H192.853333L28.330667 885.191111H467.057778c16.896 16.725333 33.735111 37.717333 42.211555 46.08 4.209778 4.096 8.419556 8.305778 8.419556 12.458667l4.209778 4.209778s4.209778 0 4.209777-4.209778L559.900444 910.222222l21.105778-20.935111H1024l-194.104889-314.083555zM395.150222 363.292444c0 62.805333 50.631111 117.248 118.158222 117.248 63.260444 0 118.158222-50.232889 118.158223-117.248 0-62.805333-50.631111-117.248-118.158223-117.248-63.260444 0-118.158222 50.232889-118.158222 117.248z m189.895111 0c0 37.717333-29.525333 71.224889-71.736889 71.224889-37.944889 0-71.736889-29.297778-71.736888-71.224889 0-37.717333 29.525333-71.224889 71.736888-71.224888 37.944889 0.056889 71.736889 29.354667 71.736889 71.224888zM777.045333 256H673.564444a27.136 27.136 0 0 0-27.192888 27.022222v11.605334c0 14.904889 12.174222 27.022222 27.192888 27.022222h105.244445l2.730667 104.448a27.079111 27.079111 0 0 0 27.875555 26.282666l11.662222-0.284444a27.136 27.136 0 0 0 26.510223-27.704889l-2.673778-102.741333h103.537778a27.136 27.136 0 0 0 27.192888-27.022222v-11.605334a27.136 27.136 0 0 0-27.192888-27.022222h-105.244445l-2.730667-104.448a27.079111 27.079111 0 0 0-27.875555-26.282667l-11.662222 0.284445a27.136 27.136 0 0 0-26.510223 27.704889l2.616889 102.741333z m-263.736889 524.401778c56.206222 0 124.928-85.162667 157.866667-121.514667 32.426667-35.84 62.748444-74.24 87.950222-115.370667 7.623111-12.515556 26.225778-51.768889 6.314667-62.407111-26.112-13.937778-67.925333 65.649778-78.563556 80.497778-41.756444 58.424889-103.310222 131.640889-169.358222 164.408889h-4.209778c-54.840889-29.297778-257.365333-217.770667-257.365333-356.010667 0-138.183111 118.158222-247.125333 257.365333-247.125333 59.847111 0 115.768889 20.878222 160.085334 55.352889 21.276444-6.940444 35.328-21.959111 14.734222-53.646222a314.88 314.88 0 0 0-174.819556-51.939556c-168.789333 0-307.996444 134.030222-307.996444 297.358222 0 171.690667 257.365333 410.396444 307.996444 410.396445z" /></svg>