<?xml version="1.0" standalone="no"?><!DOCTYPE svg PUBLIC "-//W3C//DTD SVG 1.1//EN" "http://www.w3.org/Graphics/SVG/1.1/DTD/svg11.dtd"><svg class="icon" width="200px" height="200.00px" viewBox="0 0 1024 1024" version="1.1" xmlns="http://www.w3.org/2000/svg"><path d="M512 512m-512 0a512 512 0 1 0 1024 0 512 512 0 1 0-1024 0Z" fill="#FEE8EB" /><path d="M494.3 659.4c7.2 0 14.1 1.3 20.6 4 6.5 2.7 12.2 6.4 17.1 11.1 5 4.8 8.8 10.4 11.4 16.9 2.7 6.5 4 13.3 4 20.6 0 7.2-1.3 14.1-4 20.6s-6.5 12.1-11.4 16.9-10.7 8.6-17.1 11.4-13.3 4.3-20.6 4.3c-7.6 0-14.6-1.4-20.9-4.3s-11.9-6.7-16.9-11.4c-5-4.8-8.8-10.4-11.4-16.9-2.7-6.5-4-13.3-4-20.6 0-7.2 1.3-14.1 4-20.6 2.7-6.5 6.5-12.1 11.4-16.9 5-4.8 10.6-8.5 16.9-11.1 6.3-2.6 13.3-4 20.9-4zM753 339c10.7 0 19 1.4 24.9 4.3 5.9 2.9 10.1 6.4 12.6 10.6 2.5 4.2 3.6 8.7 3.4 13.4s-0.9 8.9-2 12.3c-1.1 3.4-3.5 10.5-7.1 21.1-3.6 10.7-7.7 22.4-12.3 35.1-4.6 12.8-9 25.4-13.4 38-4.4 12.6-7.7 22.5-10 29.7-5 15.2-11.2 25.8-18.9 31.7-7.6 5.9-17 8.9-28 8.9h-300l8.6 51.4s177.2 0.5 179.2 0.5c-15 13-19 36-20 51-17 0-16.9-0.1-16.9-0.1H399.9c-7.6 0-14-1.7-19.1-5.1-5.1-3.4-9.4-7.9-12.9-13.4-3.4-5.5-6.2-11.5-8.3-18-2.1-6.5-3.7-12.6-4.9-18.3-0.4-2.3-1.4-7.8-3.1-16.6-1.7-8.8-3.8-19.7-6.3-32.9-2.5-13.1-5.2-27.8-8.3-44-3-16.2-6.1-32.5-9.1-48.9-7.2-38.5-15.4-81.3-24.6-128.6h-42.9c-5.7 0-10.5-1.4-14.3-4.3-3.8-2.9-7-6.3-9.4-10.3-2.5-4-4.2-8.3-5.1-12.9-1-4.6-1.4-8.8-1.4-12.6 0-7.6 2.6-13.9 7.7-18.9 5.1-5 12.1-7.4 20.9-7.4h57.6c7.6 0 13.7 1.1 18.3 3.4 4.6 2.3 8.2 5.1 10.9 8.6 2.7 3.4 4.6 7 5.7 10.9 1.1 3.8 2.1 7 2.9 9.7 0.8 3 1.5 7.3 2.3 12.9 0.8 5.5 1.5 11.1 2.3 16.9 1.1 6.9 2.3 14.1 3.4 21.7 0 0.2 390.8 0.2 390.8 0.2z" fill="#FF6A69" /><path d="M684.8 554.8c14.7 0 28.8 2.7 42.3 8.1 13.5 5.4 25.1 12.9 34.7 22.6s17.4 21 23.2 34.2c5.8 13.1 8.7 27 8.7 41.7 0 14.7-2.9 28.6-8.7 41.7-5.8 13.1-13.5 24.5-23.2 34.2s-21.2 17.4-34.7 23.2c-13.5 5.8-27.6 8.7-42.3 8.7s-28.6-2.9-41.7-8.7-24.5-13.5-34.2-23.2-17.4-21-23.2-34.2c-5.8-13.1-8.7-27-8.7-41.7 0-14.7 2.9-28.6 8.7-41.7 5.8-13.1 13.5-24.5 23.2-34.2s21-17.2 34.2-22.6c13.2-5.4 27.1-8.1 41.7-8.1z" fill="#FFA3A5" /><path d="M699.7 651.6v-27c0-3.3-1.7-6-5-6l-18.8 0.1c-3.3 0-5.9 2.7-5.9 5.9v26.7h-14c-3.3 0-5.9 2.7-5.9 5.9 0 1.4 0.5 2.8 1.4 3.8l29.9 42.1c2.1 2.5 7.3 2.4 9 0l28.9-42.1c2.1-2.5 1.8-6.2-0.7-8.4-1.1-0.9-2.4-1.4-3.8-1.4 0 0.2-15.1 0.4-15.1 0.4z" fill="#FFFFFF" /></svg>