<?xml version="1.0" standalone="no"?><!DOCTYPE svg PUBLIC "-//W3C//DTD SVG 1.1//EN" "http://www.w3.org/Graphics/SVG/1.1/DTD/svg11.dtd"><svg t="1599454977804" class="icon" viewBox="0 0 1024 1024" version="1.1" xmlns="http://www.w3.org/2000/svg" p-id="1923" xmlns:xlink="http://www.w3.org/1999/xlink" width="200" height="200"><defs><style type="text/css"></style></defs><path d="M648.92008 349.752l39.6-77.456c59.312-5.816 109.408-100.36 115.072-111.456 43.496-84.992 21.368-134.616-13.888-152.744a64.424 64.424 0 0 0-29.536-7.264c-36.048 0-68.2 28.648-98.344 87.552-14.136 27.696-51.12 108.656-27.696 154.672l-51.84 101.384c-23.384-1.296-46.856-2.168-70.224-2.168-132.136 0.04-256.784 19.328-351.032 54.32C57.16008 435.168-0.03192 490.32 0.00008 551.904c0 111.032 175.544 180.296 374.96 202.12l-114.736 224.232a30.88 30.88 0 0 0 27.456 44.904 30.824 30.824 0 0 0 27.512-16.824l126.4-247.08c23.448 1.336 46.992 2.184 70.408 2.184 132.136 0 256.784-19.288 350.968-54.248 103.888-38.52 161.064-93.672 161.032-155.28 0-111.08-175.616-180.4-375.08-202.16zM716.80008 116.48c22-43.04 38.512-53.464 44.36-53.464 0.16 0 0.272 0 0.392 0.032 7.36 3.768 6.992 30.768-12.928 69.736-19.976 39.152-46.776 68.416-60.696 76.28-0.88-15.128 7.56-50.872 28.872-92.584z m124.68 532.84C753.98408 681.808 636.98408 699.712 512.00008 699.712c-257.72 0-450.28-78.064-450.28-147.856-0.008-32.864 45.136-69.312 120.8-97.392 87.52-32.52 204.552-50.424 329.536-50.456 13.352 0 26.432 0.336 39.392 0.752L480.96008 542.672a30.896 30.896 0 0 0 27.456 44.92 30.856 30.856 0 0 0 27.512-16.824l82.824-162.008c202.232 17.752 343.52 83.424 343.52 143.2 0.032 32.864-45.112 69.264-120.792 97.36z" fill="#838384" p-id="1924"></path></svg>