<svg t="1598250636953" class="icon" viewBox="0 0 1024 1024" version="1.1" xmlns="http://www.w3.org/2000/svg" p-id="6839" width="200" height="200"><path d="M750.6 170.1c52.2 0 103.3 51.1 103.3 103.3v450.8c0 13.8 11.2 25.1 25.1 25.1 13.8 0 25.1-11.2 25.1-25.1V273.4c0-79.9-73.6-153.4-153.4-153.4H300.9c-13.8 0-25.1 11.2-25.1 25.1 0 13.8 11.2 25.1 25.1 25.1h449.7z" p-id="6840" fill="#666666"></path><path d="M736.2 213.8H194c-40.9 0-74 33.1-74 74V830c0 40.9 33.1 74 74 74h542.2c40.9 0 74-33.1 74-74V287.8c0-40.9-33.1-74-74-74zM421 525.9c17.8 1.8 27.7 11.6 29.5 29.5 0 17.9-9.8 26.8-29.5 26.8H286v102.9h148.4c19.6 0 29.5 9.8 29.5 29.5 0 17.9-9.8 26.8-29.5 26.8H259.2c-21.4 0-32.1-10.7-32.1-32.1v-304c0-21.4 10.7-32.1 32.1-32.1h175.2c19.6 0 29.5 9 29.5 26.8-1.8 17.9-11.6 27.7-29.5 29.5H286V526h135z m289.1 188.7c0 17.9-9.8 26.8-29.5 26.8-21.4 0-32.1-8.9-32.1-26.8v-79.7c-1.8-55.3-0.5-80-46.2-79.9-27.2 0-47.1 24.6-48.8 79.9v79.7c0 17.9-9.8 26.8-29.5 26.8s-29.5-8.9-29.5-26.8V525.1c0-21.4 9.8-32.1 29.5-32.1 19.6 0 29.5 10.7 29.5 32.1v16.1c5-22.3 32.7-44.6 61.8-44.7 91.7-0.2 94.8 46.4 94.8 135.7v82.4z" p-id="6841" fill="#666666"></path></svg>