<?xml version="1.0" standalone="no"?><!DOCTYPE svg PUBLIC "-//W3C//DTD SVG 1.1//EN" "http://www.w3.org/Graphics/SVG/1.1/DTD/svg11.dtd"><svg class="icon" width="200px" height="200.00px" viewBox="0 0 1024 1024" version="1.1" xmlns="http://www.w3.org/2000/svg"><path d="M567.466667 746.666667H132.266667c-34.133333 0-64-29.866667-64-64V234.666667c4.266667-34.133333 29.866667-64 64-64h435.2c34.133333 0 64 29.866667 64 64V682.666667c0 34.133333-29.866667 64-64 64zM132.266667 221.866667c-4.266667 0-8.533333 4.266667-8.533334 12.8V682.666667c0 4.266667 4.266667 8.533333 8.533334 8.533333h435.2c4.266667 0 8.533333-4.266667 8.533333-8.533333V234.666667c0-4.266667-4.266667-8.533333-8.533333-8.533334H132.266667z" fill="#6A3906" /><path d="M900.266667 746.666667h-311.466667c-12.8 0-25.6-12.8-25.6-25.6s12.8-25.6 25.6-25.6h311.466667l4.266666-4.266667c4.266667-64 4.266667-106.666667 8.533334-132.266667 4.266667-51.2 4.266667-68.266667-4.266667-85.333333-8.533333-17.066667-21.333333-29.866667-29.866667-46.933333-12.8-17.066667-25.6-29.866667-38.4-42.666667-12.8-12.8-25.6-25.6-46.933333-42.666667l-183.466667-4.266666c-12.8 0-25.6-12.8-25.6-25.6s12.8-25.6 25.6-25.6l196.266667 4.266666c4.266667 0 12.8 4.266667 17.066667 4.266667 25.6 21.333333 42.666667 38.4 55.466666 51.2 12.8 17.066667 25.6 25.6 42.666667 46.933333 12.8 17.066667 29.866667 34.133333 38.4 55.466667 12.8 34.133333 12.8 59.733333 8.533333 106.666667-4.266667 29.866667-4.266667 72.533333-8.533333 128 0 12.8-4.266667 34.133333-17.066667 46.933333-21.333333 17.066667-34.133333 17.066667-42.666666 17.066667z" fill="#6A3906" /><path d="M874.666667 413.866667h-119.466667c-4.266667 0-8.533333 4.266667-8.533333 8.533333v85.333333c0 4.266667 4.266667 8.533333 8.533333 8.533334h179.2c12.8 0 25.6 12.8 25.6 25.6s-12.8 25.6-25.6 25.6h-179.2c-34.133333 0-64-29.866667-64-64v-85.333334c0-34.133333 29.866667-64 64-64h119.466667" fill="#6A3906" /><path d="M499.2 661.333333h-298.666667c-17.066667 0-29.866667-12.8-29.866666-29.866666V315.733333c0-17.066667 12.8-29.866667 29.866666-29.866666h298.666667c17.066667 0 29.866667 12.8 29.866667 29.866666v311.466667c0 21.333333-12.8 34.133333-29.866667 34.133333z" fill="#F5CB2B" /><path d="M315.733333 725.333333m-85.333333 0a85.333333 85.333333 0 1 0 170.666667 0 85.333333 85.333333 0 1 0-170.666667 0Z" fill="#F5CB2B" /><path d="M315.733333 836.266667c-59.733333 0-110.933333-51.2-110.933333-110.933334 0-59.733333 51.2-110.933333 110.933333-110.933333S426.666667 665.6 426.666667 725.333333c0 59.733333-51.2 110.933333-110.933334 110.933334z m0-174.933334c-34.133333 0-64 29.866667-64 64s29.866667 64 64 64 64-29.866667 64-64-25.6-64-64-64z" fill="#6A3906" /><path d="M763.733333 725.333333m-85.333333 0a85.333333 85.333333 0 1 0 170.666667 0 85.333333 85.333333 0 1 0-170.666667 0Z" fill="#F5CB2B" /><path d="M763.733333 836.266667c-59.733333 0-110.933333-51.2-110.933333-110.933334 0-59.733333 51.2-110.933333 110.933333-110.933333 59.733333 0 110.933333 51.2 110.933334 110.933333 0 59.733333-51.2 110.933333-110.933334 110.933334z m0-174.933334c-34.133333 0-64 29.866667-64 64s29.866667 64 64 64 64-29.866667 64-64-29.866667-64-64-64z" fill="#6A3906" /></svg>