<?xml version="1.0" standalone="no"?><!DOCTYPE svg PUBLIC "-//W3C//DTD SVG 1.1//EN" "http://www.w3.org/Graphics/SVG/1.1/DTD/svg11.dtd"><svg class="icon" width="200px" height="200.00px" viewBox="0 0 1024 1024" version="1.1" xmlns="http://www.w3.org/2000/svg"><path fill="#333333" d="M889.679805 547.051307c0-41.48074-27.488051-76.604702-65.056692-87.821161L824.623114 320.252885c0-47.821145-38.557154-86.729294-85.951581-86.729294l-39.310308 0-87.373976-94.53405c-3.321652-3.619434-8.553817-4.706185-13.033851-2.76702L374.667192 233.523591l-85.661985 0c-47.393403 0-85.951581 38.908148-85.951581 86.729294l0 453.629591c0 47.806819 38.557154 86.706781 85.951581 86.706781l449.666326 0c47.393403 0 85.951581-38.899962 85.951581-86.706781L824.623114 634.881678C862.190731 623.665219 889.679805 588.53921 889.679805 547.051307zM600.618317 160.9149l67.11149 72.608691L433.252495 233.523591 600.618317 160.9149zM801.478997 773.881452c0 34.932604-28.181853 63.35698-62.808488 63.35698L289.005206 837.238432c-34.626635 0-62.808488-28.424376-62.808488-63.35698L226.196719 320.252885c0-34.94693 28.181853-63.379493 62.808488-63.379493l449.666326 0c34.626635 0 62.808488 28.433586 62.808488 63.379493l0 135.267776c-0.857531-0.024559-1.716084-0.038886-2.578732-0.038886L578.36243 455.481775c-6.390547 0-11.573593 5.230118-11.573593 11.675924l0 159.799496c0 6.445806 5.184069 11.675924 11.573593 11.675924l220.537835 0c0.862647 0 1.722224-0.01535 2.578732-0.038886L801.478997 773.881452zM798.900266 615.282295 589.936023 615.282295 589.936023 478.82953l208.964242 0c37.296441 0 67.636446 30.607088 67.636446 68.221778C866.536712 584.675206 836.196707 615.282295 798.900266 615.282295z" /></svg>