<?xml version="1.0" standalone="no"?><!DOCTYPE svg PUBLIC "-//W3C//DTD SVG 1.1//EN" "http://www.w3.org/Graphics/SVG/1.1/DTD/svg11.dtd"><svg t="1600502220537" class="icon" viewBox="0 0 1024 1024" version="1.1" xmlns="http://www.w3.org/2000/svg" p-id="6045" xmlns:xlink="http://www.w3.org/1999/xlink" width="200" height="200"><defs><style type="text/css"></style></defs><path d="M957.230738 745.462176c-7.572299-22.819227-33.461377-60.169082-59.759768-93.016488 16.474868-44.717498 24.968122-92.197861 24.968123-140.906166 0-108.365744-40.931348-209.67083-115.119417-285.393824-36.940542-37.65684-80.634756-67.536724-129.854701-88.821025-51.266513-22.102928-106.933147-34.177676-165.567303-35.81493-109.082043 0-210.898771 41.647647-287.645049 117.370641-40.419706-15.451584-73.369441-23.740182-98.132907-24.763466-36.940542-1.534926-52.392126 13.507345-58.941141 26.503048-10.846807 21.591286-5.525732 52.596782 16.372539 94.960728 10.02818 19.340062 23.535525 40.931348 39.908065 63.852902-14.530629 42.568602-21.898271 86.876786-21.898272 132.105926 0 89.639652 28.754272 174.981513 83.090637 247.020686l65.797142 69.583292c36.019586 29.879884 76.336964 53.108424 120.031178 69.173978 45.22914 16.679524 92.91416 25.070451 141.520136 25.07045 48.912961 0 96.802638-8.595583 142.236434-25.377435 43.796542-16.270211 84.318577-39.805736 120.440492-69.890277l9.41421-10.02818c28.140302 6.446687 53.313081 10.539822 75.518337 12.177076 45.024483 3.069851 74.597382-4.297792 90.560608-22.512242 13.302688-15.144599 15.553912-35.712601 7.060657-61.294694zM512 187.056261c86.774458 0 168.432497 33.768362 229.727191 95.165384 61.397022 61.397022 95.165384 142.952733 95.165384 229.727191 0 86.774458-33.768362 168.432497-95.165384 229.829519-8.80024 8.80024-18.112122 17.088838-27.730988 24.763466-93.630459-30.289198-195.140202-76.234636-268.816629-122.077746C366.284401 595.244129 272.551614 512.255821 198.465874 426.197662c14.632957-53.927051 43.182572-103.453982 83.806935-143.976017 61.294694-61.397022 142.952733-95.165384 229.727191-95.165384z m-418.318377 47.173378c3.78615-7.367643 14.223643-10.846807 31.210153-10.130508 19.340062 0.818627 45.331468 6.958329 77.257919 18.521435-26.912361 31.107825-48.912961 65.797142-65.592485 103.55631-38.884781-57.713201-50.652543-96.495653-42.875587-111.947237z m418.318377 602.7141c-86.774458 0-168.432497-33.768362-229.727191-95.165384-61.397022-61.397022-95.165384-142.952733-95.165384-229.829519 0-16.679524 1.22794-33.154392 3.683821-49.424603 73.369441 82.169681 162.59978 159.836914 238.732088 207.112621 70.197262 43.591886 164.646348 87.2861 254.388328 118.189268-51.061857 32.02878-110.207655 49.117618-171.911662 49.117617z m415.862496-49.936244c-11.460777 12.995703-48.810633 19.033077-119.826521 4.707105l32.335765-34.382333c17.498151-23.433197 32.335765-48.196662 44.308184-74.08574 22.921555 28.651944 37.963825 52.801439 44.308184 71.936845 4.911762 14.632957 4.604777 25.275107-1.125612 31.824123z" p-id="6046" data-spm-anchor-id="a313x.7781069.0.i6" class="selected" fill="rgb(216, 30, 6)"></path><path d="M650.654942 575.494754c10.232837 0 20.261017-4.195463 27.424003-11.460778 7.162986-7.162986 11.460777-17.293495 11.460777-27.526331s-4.195463-20.363346-11.460777-27.526332c-7.162986-7.162986-17.293495-11.460777-27.424003-11.460777-10.232837 0-20.261017 4.195463-27.424004 11.460777-7.162986 7.162986-11.460777 17.293495-11.460777 27.526332s4.195463 20.363346 11.460777 27.526331c7.162986 7.162986 17.191166 11.460777 27.424004 11.460778zM359.633057 722.02898c-6.651344 0-13.098031 2.660538-17.805137 7.367642-4.604777 4.604777-7.367643 11.256121-7.367642 17.907465s2.660538 13.20036 7.367642 17.805137c4.604777 4.707105 11.256121 7.367643 17.805137 7.367642 6.651344 0 13.098031-2.660538 17.805136-7.367642 4.604777-4.604777 7.367643-11.153792 7.367643-17.805137 0-6.651344-2.660538-13.20036-7.367643-17.907465-4.604777-4.604777-11.153792-7.367643-17.805136-7.367642zM522.02818 387.108224c17.702808 0 35.303288-7.265314 47.787349-19.851704 12.58639-12.484061 19.851704-30.084541 19.851704-47.889677s-7.265314-35.405616-19.851704-47.889677c-12.58639-12.58639-30.186869-19.851704-47.787349-19.851704-17.702808 0-35.303288 7.265314-47.787349 19.851704-12.58639 12.58639-19.851704 30.186869-19.851703 47.889677 0 17.805136 7.265314 35.405616 19.851703 47.889677 12.58639 12.484061 30.186869 19.851704 47.787349 19.851704z" p-id="6047"></path></svg>