<?xml version="1.0" standalone="no"?><!DOCTYPE svg PUBLIC "-//W3C//DTD SVG 1.1//EN" "http://www.w3.org/Graphics/SVG/1.1/DTD/svg11.dtd"><svg t="1644463971865" class="icon" viewBox="0 0 1024 1024" version="1.1" xmlns="http://www.w3.org/2000/svg" p-id="2176" xmlns:xlink="http://www.w3.org/1999/xlink" width="200" height="200"><defs><style type="text/css"></style></defs><path d="M448 480A224 224 0 1 1 672 256 224 224 0 0 1 448 480z m0-384A160 160 0 1 0 608 256 160 160 0 0 0 448 96z" fill="#d81e06" p-id="2177"></path><path d="M704 960H64a32.64 32.64 0 0 1-32-30.08V896C32 631.04 218.88 416 448 416a384 384 0 0 1 289.92 135.68 32 32 0 0 1 0 44.8 32 32 0 0 1-45.44 0A320 320 0 0 0 448 480c-192 0-352 186.88-352 416H704a32 32 0 0 1 0 64zM832 928a30.08 30.08 0 0 1-22.4-9.6 30.72 30.72 0 0 1 0-44.8L914.56 768l-104.96-105.6a31.36 31.36 0 0 1 44.8-44.8l128 128a30.72 30.72 0 0 1 0 44.8l-128 128a30.08 30.08 0 0 1-22.4 9.6z" fill="#d81e06" p-id="2178"></path><path d="M960 800H576a32 32 0 0 1 0-64h384a32 32 0 0 1 0 64z" fill="#d81e06" p-id="2179"></path></svg>