<?xml version="1.0" standalone="no"?><!DOCTYPE svg PUBLIC "-//W3C//DTD SVG 1.1//EN" "http://www.w3.org/Graphics/SVG/1.1/DTD/svg11.dtd"><svg class="icon" width="200px" height="200.00px" viewBox="0 0 1024 1024" version="1.1" xmlns="http://www.w3.org/2000/svg"><path d="M401 514.6c-8.9-12.6-26-15.8-38.1-7.2-12.1 8.6-14.7 25.8-5.8 38.3 8.9 12.6 26 15.8 38.1 7.2 12.1-8.6 14.7-25.8 5.8-38.3zM525.6 699.1l-97.9-138c-0.7-1-2.1-1.2-3-0.5l-31.9 22.6c-1 0.7-1.2 2.1-0.5 3l97.9 138c0.7 1 2.1 1.2 3 0.5l31.9-22.6c0.9-0.7 1.2-2.1 0.5-3z" fill="#6B400D" /><path d="M685.3 712.5c-1.5-0.5-3-0.7-4.6-0.7-6.2 0-12.6 3.8-16.4 7.7-5.1 6.4-6.4 14.9-3.3 22.7 2.9 7.5 9.4 12.9 16.9 14 34.3 4.5 69.4 11.8 110.3 22.9 70.3 20.7 90.8 44.2 92 48.2-1 4.6-20.4 27.6-92.1 48.7-74.1 22.8-173.1 35.3-278.7 35.3-107.3 0-206.3-12.5-278.8-35.4-70.3-19.5-89.3-42.3-90.3-46.4 1-4.6 20.5-27.6 92.2-48.7 29.9-9.8 65.5-17.1 111.8-22.9 7.6-1 13.9-5.6 17.1-12.6 3.5-7.6 2.9-16.7-1.5-23.7-4-6.3-10.5-9.4-20.2-9.4h-0.1C189.2 733 95.9 777.8 95.9 829.3c0 72.6 182.4 129.6 415.2 129.6S926.2 902 926.2 829.3c0-51.4-92.5-96.2-240.9-116.8z" fill="#6B400D" /><path d="M513 854.1c6.4 0 12.2-2.8 16.2-7.7l3.5-4.1C714.2 628.5 806.3 465.9 806.3 359c0-162.8-132.4-295.2-295.2-295.2-162.8 0-295.2 132.4-295.2 295.2 0 157.5 213.7 412.8 279.2 487.4 4.8 4.9 11.5 7.7 17.9 7.7z m-2-744.7c137.6 0 249.6 112 249.6 249.6 0 77.7-83.2 226.2-234.3 418-3.6 4.6-9.2 7.2-15.3 7.2s-11.7-2.6-15.3-7.2C344.6 585.2 261.4 436.8 261.4 359c0-137.6 112-249.6 249.6-249.6z" fill="#6B400D" /><path d="M511 486.6c71.5 0 127.6-56 127.6-127.6s-56-127.6-127.6-127.6-127.6 56-127.6 127.6S439.5 486.6 511 486.6z m0-210.9c46.8 0 83.4 36.6 83.4 83.4 0 46.8-36.6 83.4-83.4 83.4-46.8 0-83.4-36.6-83.4-83.4 0.1-46.8 36.7-83.4 83.4-83.4z" fill="#6B400D" /><path d="M511 442.4c46.8 0 83.4-36.6 83.4-83.4 0-46.8-36.6-83.4-83.4-83.4-46.8 0-83.4 36.6-83.4 83.4 0.1 46.8 36.7 83.4 83.4 83.4z" fill="#FFD524" /></svg>