<?xml version="1.0" standalone="no"?><!DOCTYPE svg PUBLIC "-//W3C//DTD SVG 1.1//EN" "http://www.w3.org/Graphics/SVG/1.1/DTD/svg11.dtd"><svg class="icon" width="200px" height="200.00px" viewBox="0 0 1024 1024" version="1.1" xmlns="http://www.w3.org/2000/svg"><path fill="#B1B8C8" d="M391.314286 409.6c0 65.828571 54.857143 120.685714 120.685714 120.685714 65.828571 0 120.685714-54.857143 120.685714-120.685714s-54.857143-120.685714-120.685714-120.685714c-67.657143 0-120.685714 53.028571-120.685714 120.685714z m204.8 0c0 45.714286-38.4 84.114286-84.114286 84.114286s-84.114286-38.4-84.114286-84.114286 38.4-84.114286 84.114286-84.114286 84.114286 36.571429 84.114286 84.114286zM713.142857 570.514286c3.657143-3.657143 5.485714-9.142857 5.485714-12.8 0-5.485714-1.828571-9.142857-5.485714-12.8-7.314286-7.314286-18.285714-7.314286-25.6 0-3.657143 3.657143-5.485714 7.314286-5.485714 12.8 0 5.485714 1.828571 9.142857 5.485714 12.8 3.657143 3.657143 9.142857 5.485714 12.8 5.485714 3.657143 0 9.142857-1.828571 12.8-5.485714z"  /><path fill="#B1B8C8" d="M512 159.085714c-140.8 0-256 115.2-256 256 0 146.285714 217.6 398.628571 254.171429 402.285715 31.085714 0 138.971429-142.628571 164.571428-182.857143 5.485714-9.142857 3.657143-20.114286-5.485714-25.6-9.142857-5.485714-20.114286-3.657143-25.6 5.485714-54.857143 80.457143-113.371429 144.457143-133.485714 162.742857-42.057143-34.742857-219.428571-234.057143-219.428572-362.057143 0-120.685714 98.742857-219.428571 219.428572-219.428571s219.428571 98.742857 219.428571 219.428571c0 14.628571-1.828571 31.085714-7.314286 47.542857-3.657143 10.971429-7.314286 23.771429-12.8 36.571429-3.657143 9.142857 0 20.114286 9.142857 23.771429 9.142857 3.657143 20.114286 0 23.771429-9.142858 5.485714-14.628571 10.971429-27.428571 14.628571-40.228571 5.485714-21.942857 9.142857-40.228571 9.142858-58.514286 1.828571-142.628571-113.371429-256-254.171429-256z"  /><path fill="#B1B8C8" d="M630.857143 727.771429c-9.142857-1.828571-20.114286 5.485714-21.942857 14.628571-1.828571 9.142857 5.485714 20.114286 14.628571 21.942857 65.828571 12.8 82.285714 31.085714 82.285714 32.914286 0 10.971429-60.342857 43.885714-193.828571 43.885714s-193.828571-32.914286-193.828571-43.885714c0-3.657143 14.628571-20.114286 76.8-32.914286 9.142857-1.828571 16.457143-10.971429 14.628571-21.942857-1.828571-9.142857-10.971429-16.457143-21.942857-14.628571-47.542857 9.142857-106.057143 29.257143-106.057143 67.657142 0 54.857143 118.857143 80.457143 230.4 80.457143s230.4-25.6 230.4-80.457143c0-38.4-60.342857-58.514286-111.542857-67.657142z"  /></svg>