<?xml version="1.0" standalone="no"?><!DOCTYPE svg PUBLIC "-//W3C//DTD SVG 1.1//EN" "http://www.w3.org/Graphics/SVG/1.1/DTD/svg11.dtd"><svg class="icon" width="200px" height="200.00px" viewBox="0 0 1024 1024" version="1.1" xmlns="http://www.w3.org/2000/svg"><path d="M511.936815 208.137317A162.74981 162.74981 0 1 0 674.909112 370.887127a162.916676 162.916676 0 0 0-162.972297-162.74981z m91.164367 162.74981A91.164367 91.164367 0 1 1 511.936815 279.722759a91.275611 91.275611 0 0 1 91.164367 91.164368z" fill="#8BAEF7" /><path d="M680.971904 751.063118c89.328843-100.842586 148.510592-181.605649 172.428028-235.39207a366.270505 366.270505 0 0 0 29.479631-144.617056A370.720261 370.720261 0 1 0 140.938444 370.887127a385.0151 385.0151 0 0 0 27.254753 139.944812c21.581315 53.953286 81.986746 136.385008 175.765345 240.119935C255.352784 764.912982 124.251861 799.565454 124.251861 882.052797c0 97.560891 200.962086 141.947203 387.684954 141.947203s387.684954-44.497556 387.684953-141.947203c-0.055622-82.153612-130.15535-116.806084-218.649864-130.989679zM580.351806 756.625312c-26.809777 29.034655-51.227811 53.619555-68.470613 70.862358-17.187181-17.187181-41.660837-41.827702-68.470614-70.862358-113.858121-123.758827-188.224661-220.207279-209.305378-271.713199a305.531342 305.531342 0 0 1-21.358826-114.024986A299.46855 299.46855 0 0 1 511.936815 71.752309c166.865834 0 299.19044 132.491472 301.582183 301.582183A284.116893 284.116893 0 0 1 789.82405 489.639978c-23.694948 51.895274-94.11233 141.724715-209.472244 266.985334z m-94.557305 149.344922l2.447365 2.447365a29.646496 29.646496 0 0 0 22.248778 11.124389 35.264313 35.264313 0 0 0 27.254753-11.124389c0.333732-0.389354 35.931776-37.544813 82.876697-88.995111 146.341336 12.737425 203.131342 51.561543 207.247366 62.519066-5.228463 14.684193-110.743292 67.580663-315.932645 67.580662-208.471048 0-310.426073-50.393482-315.877024-67.302553 5.228463-10.345682 64.410212-47.890494 207.247366-62.741553 27.254753 30.03585 55.010103 59.070505 82.487344 86.492124z" fill="#467CFD" /></svg>