<?xml version="1.0" standalone="no"?><!DOCTYPE svg PUBLIC "-//W3C//DTD SVG 1.1//EN" "http://www.w3.org/Graphics/SVG/1.1/DTD/svg11.dtd"><svg class="icon" width="200px" height="200.00px" viewBox="0 0 1024 1024" version="1.1" xmlns="http://www.w3.org/2000/svg"><path fill="#333333" d="M530.692096 850.915328c-75.429888 0-150.857728 0.026624-226.285568-0.008192-63.31392-0.03072-111.570944-48.050176-111.583232-111.089664-0.032768-151.881728-0.032768-303.763456 0-455.645184 0.014336-62.564352 48.265216-111.050752 110.579712-111.069184 152.223744-0.043008 304.44544-0.045056 456.669184 0 62.308352 0.018432 110.544896 48.515072 110.557184 111.091712 0.03072 151.881728 0.03072 303.761408 0 455.643136-0.014336 62.558208-48.259072 111.017984-110.579712 111.060992-76.453888 0.059392-152.905728 0.016384-229.357568 0.016384z m0.004096-26.136576c75.405312 0 150.81472 0.032768 226.220032-0.012288 51.93728-0.028672 87.552-35.362816 87.57248-87.04 0.057344-150.474752 0.057344-300.947456 0-451.42016-0.018432-51.668992-35.649536-87.056384-87.556096-87.068672-150.132736-0.034816-300.263424-0.034816-450.394112 0-51.974144 0.012288-87.556096 35.340288-87.576576 87.05024-0.055296 150.472704-0.055296 300.945408 0 451.418112 0.018432 51.728384 35.579904 87.027712 87.560192 87.058432 74.725376 0.045056 149.448704 0.014336 224.17408 0.014336z"  /><path fill="#333333" d="M519.600128 360.495104c0.360448-0.079872 0-10.405888 0-11.403264v-12.152832c0-1.656832-0.329728-3.305472-0.188416-4.962304 0.135168-1.59744 0.811008-2.893824 1.67936-4.21888 0.50176-0.768 1.042432-1.511424 1.656832-2.195456 1.110016-1.23904 2.453504-2.265088 4.005888-2.88768 3.129344-1.255424 6.260736-0.520192 8.79616 1.615872 2.721792 2.29376 4.58752 4.395008 4.859904 8.093696 0.339968 4.642816-0.075776 9.388032-0.01024 14.045184 0.038912 2.719744 0.002048 5.43744 0.002048 8.157184 0 0.579584-0.131072 6.73792 0 6.754304 26.392576 3.559424 50.497536 10.139648 67.158016 31.762432 9.50272 12.331008 15.187968 26.906624 18.030592 42.113024 0.6144 3.28704 1.640448 6.803456 0.079872 9.977856-1.728512 3.51232-4.603904 6.803456-7.942144 8.353792-4.642816 2.156544-10.616832 1.007616-15.038464-1.875968-2.830336-1.845248-6.467584-4.235264-7.645184-7.471104-1.441792-3.964928-2.183168-8.220672-3.377152-12.20608-2.215936-7.409664-5.287936-14.56128-10.108928-20.670464a41.218048 41.218048 0 0 0-9.773056-8.947712c-8.759296-5.740544-19.277824-7.346176-31.010816-12.488704 0 28.082176-0.116736 51.48672 0.059392 76.337152 0.065536 9.4208-2.359296 20.992 2.158592 27.62752 4.257792 6.254592 16.037888 7.64928 24.713216 10.573824 19.294208 6.500352 37.402624 14.649344 50.501632 31.207424 25.858048 32.684032 16.2304 88.172544-20.475904 107.83744-14.290944 7.657472-31.361024 10.15808-47.222784 14.821376-2.809856 0.825344-5.888 0.735232-9.7792 1.175552-0.116736 0.014336 0 6.486016 0 7.090176v7.071744c-0.002048 4.698112 0.008192 9.396224-0.002048 14.092288l-0.002048 3.98336c-0.002048 0.755712 0.188416 1.523712-0.110592 2.250752-0.382976 0.927744-1.427456 1.55648-2.16064 2.19136-0.714752 0.620544-1.439744 1.2288-2.195456 1.798144-1.220608 0.915456-2.543616 1.779712-4.016128 2.228224-2.740224 0.835584-5.287936-0.335872-7.499776-1.923072-0.792576-0.569344-1.550336-1.18784-2.29376-1.820672-0.630784-0.534528-1.355776-0.966656-1.91488-1.581056-0.733184-0.80896-0.684032-1.536-0.673792-2.564096 0.008192-0.95232 0.016384-1.90464 0.028672-2.854912 0.024576-1.8944 0.053248-3.786752 0.079872-5.679104 0.047104-3.786752 0.07168-7.573504-0.053248-11.358208a116.359168 116.359168 0 0 0-0.376832-6.37952c-0.239616-2.711552-3.995648-6.97344-6.592512-7.344128-45.975552-6.541312-72.747008-32.272384-80.439296-78.061568a336.103424 336.103424 0 0 1-1.482752-10.000384c-1.007616-7.358464 0.438272-15.468544 7.370752-19.314688 5.2224-2.899968 11.388928-3.2768 16.146432 0.679936 4.192256 3.485696 7.542784 7.759872 8.900608 13.099008 1.230848 4.837376 1.60768 9.865216 2.748416 14.731264 2.256896 9.6256 5.177344 19.052544 10.795008 27.291648 3.221504 4.724736 7.385088 8.8064 12.099584 12.048384 8.323072 5.72416 18.827264 8.275968 30.78144 13.293568v-13.922304c0-30.035968-0.135168-60.073984 0.11264-90.107904 0.0512-5.937152-1.460224-9.355264-7.518208-11.208704-9.091072-2.777088-17.887232-6.518784-26.843136-9.752576-33.572864-12.128256-51.351552-35.897344-51.136512-68.438016 0.229376-34.715648 18.460672-59.906048 52.424704-71.104512 10.248192-3.377152 21.12512-4.847616 32.694272-7.407616z m21.743616 165.658624v106.354688c13.391872-5.074944 26.390528-7.774208 36.89472-14.413824 26.984448-17.05984 27.297792-55.017472 0.876544-72.830976-11.075584-7.46496-23.963648-12.242944-37.771264-19.109888z m-22.24128-36.82304v-98.217984c-13.449216 0.09216-24.788992 4.098048-34.689024 11.788288-19.3536 15.030272-22.46656 46.635008-4.6592 61.964288 10.969088 9.443328 24.778752 15.59552 39.348224 24.465408z"  /></svg>