<svg t="1598250674803" class="icon" viewBox="0 0 1024 1024" version="1.1" xmlns="http://www.w3.org/2000/svg" p-id="7718" width="200" height="200"><path d="M960 0c34.133333 0 64 29.866667 64 64v640c0 34.133333-29.866667 64-64 64V128c0-34.133333-29.866667-64-64-64H256C256 29.866667 285.866667 0 320 0h640z" p-id="7719" fill="#666666"></path><path d="M832 128c34.133333 0 64 29.866667 64 64v768c0 34.133333-29.866667 64-64 64h-768C29.866667 1024 0 994.133333 0 960v-768C0 157.866667 29.866667 128 64 128h768zM384 337.066667v98.133333H187.733333v273.066667H384v166.4h76.8v-166.4h192v-273.066667h-192V337.066667H384z m0 170.666666v123.733334H268.8v-123.733334H384z m192 0v123.733334h-110.933333v-123.733334h110.933333z" p-id="7720" fill="#666666"></path></svg>